<svg width="27" height="32" viewBox="0 0 27 32" fill="none" xmlns="http://www.w3.org/2000/svg">
<g clip-path="url(#clip0)">
<path d="M15.368 10.7408L15.368 21.2591L11.5781 21.2591L11.5781 10.7408L15.368 10.7408Z" fill="white" stroke="white"/>
<path d="M17.1707 30.327L17.1707 29.528L10.1072 29.528L10.1072 30.327C10.1081 31.2506 10.7395 31.9991 11.519 32L15.7594 32C16.5386 31.9988 17.17 31.2503 17.1707 30.327Z" fill="white"/>
<path d="M20.1576 26.3939L20.1576 23.2203L6.78856 23.2203L6.78856 26.3939C6.78952 27.3174 7.42089 28.0659 8.2001 28.0668L18.746 28.0668C19.5252 28.0659 20.1566 27.3174 20.1576 26.3939Z" fill="white"/>
<path d="M18.746 3.93323L8.2001 3.93323C7.42089 3.93408 6.78928 4.68266 6.78856 5.60617L6.78856 8.77969L20.1576 8.77969L20.1576 5.60617C20.1566 4.68266 19.5252 3.93408 18.746 3.93323Z" fill="white"/>
<path d="M15.7591 -6.17007e-08L11.519 -2.47045e-07C10.7395 0.000855887 10.1081 0.749429 10.1072 1.67294L10.1072 2.47203L17.1707 2.47203L17.1707 1.67295C17.17 0.749429 16.5384 0.00114152 15.7591 -6.17007e-08Z" fill="white"/>
</g>
<defs>
<clipPath id="clip0">
<rect width="32" height="27" fill="white" transform="translate(27) rotate(90)"/>
</clipPath>
</defs>
</svg>
